<svg width="265" height="48" viewBox="0 0 265 48" fill="none" xmlns="http://www.w3.org/2000/svg">
<g filter="url(#filter0_d_1_2)">
<path d="M6.39134 31L18.451 7.13636V6.9375H4.4027V1.90909H24.8146V7.00852L12.7408 31H6.39134ZM36.9986 31.4261C34.7543 31.4261 32.8224 30.9716 31.2031 30.0625C29.5933 29.1439 28.3527 27.8466 27.4815 26.1705C26.6103 24.4848 26.1747 22.4915 26.1747 20.1903C26.1747 17.946 26.6103 15.9763 27.4815 14.2812C28.3527 12.5862 29.5791 11.2652 31.1605 10.3182C32.7514 9.37121 34.617 8.89773 36.7571 8.89773C38.1965 8.89773 39.5365 9.12973 40.777 9.59375C42.027 10.0483 43.116 10.7348 44.044 11.6534C44.9815 12.572 45.7107 13.7273 46.2315 15.1193C46.7524 16.5019 47.0128 18.1212 47.0128 19.9773V21.6392H28.5895V17.8892H41.3168C41.3168 17.018 41.1274 16.2462 40.7486 15.5739C40.3698 14.9015 39.8442 14.3759 39.1719 13.9972C38.509 13.6089 37.7372 13.4148 36.8565 13.4148C35.938 13.4148 35.1236 13.6278 34.4134 14.054C33.7126 14.4706 33.1634 15.0341 32.7656 15.7443C32.3679 16.4451 32.1643 17.2263 32.1548 18.0881V21.6534C32.1548 22.733 32.3537 23.6657 32.7514 24.4517C33.1586 25.2377 33.7315 25.8438 34.4702 26.2699C35.2088 26.696 36.0848 26.9091 37.098 26.9091C37.7704 26.9091 38.3859 26.8144 38.9446 26.625C39.5033 26.4356 39.9815 26.1515 40.3793 25.7727C40.777 25.3939 41.08 24.9299 41.2884 24.3807L46.8849 24.75C46.6009 26.0947 46.0185 27.2689 45.1378 28.2727C44.2666 29.267 43.1397 30.0436 41.7571 30.6023C40.384 31.1515 38.7978 31.4261 36.9986 31.4261ZM54.1115 39.1818C53.3445 39.1818 52.6248 39.1203 51.9524 38.9972C51.2895 38.8835 50.7403 38.7367 50.3047 38.5568L51.6683 34.0398C52.3786 34.2576 53.0178 34.3759 53.5859 34.3949C54.1636 34.4138 54.6607 34.2813 55.0774 33.9972C55.5036 33.7131 55.8492 33.2301 56.1143 32.5483L56.4695 31.625L48.6428 9.18182H55.0064L59.5234 25.2045H59.7507L64.3104 9.18182H70.7166L62.2365 33.358C61.8293 34.5322 61.2753 35.5549 60.5746 36.4261C59.8833 37.3068 59.0073 37.9839 57.9467 38.4574C56.8861 38.9403 55.6077 39.1818 54.1115 39.1818ZM80.1342 1.90909V4.97727C80.1342 5.84848 79.9638 6.73864 79.6229 7.64773C79.2914 8.54735 78.8464 9.39962 78.2876 10.2045C77.7289 11 77.1181 11.6771 76.4553 12.2358L73.7848 10.6591C74.2583 9.91098 74.675 9.08239 75.0348 8.1733C75.4041 7.2642 75.5888 6.20833 75.5888 5.00568V1.90909H80.1342ZM99.5838 15.4034L94.044 15.7443C93.9493 15.2708 93.7457 14.8447 93.4332 14.4659C93.1207 14.0777 92.7088 13.7699 92.1974 13.5426C91.6955 13.3059 91.0942 13.1875 90.3935 13.1875C89.456 13.1875 88.6652 13.3864 88.0213 13.7841C87.3774 14.1723 87.0554 14.6932 87.0554 15.3466C87.0554 15.8674 87.2637 16.3078 87.6804 16.6676C88.0971 17.0275 88.812 17.3163 89.8253 17.5341L93.7741 18.3295C95.8954 18.7652 97.4768 19.4659 98.5185 20.4318C99.5601 21.3977 100.081 22.6667 100.081 24.2386C100.081 25.6686 99.6596 26.9233 98.8168 28.0028C97.9834 29.0824 96.8376 29.9252 95.3793 30.5312C93.9304 31.1278 92.259 31.4261 90.3651 31.4261C87.4768 31.4261 85.1757 30.8248 83.4616 29.6222C81.7571 28.41 80.758 26.7623 80.4645 24.679L86.4162 24.3665C86.5961 25.2472 87.0317 25.9195 87.723 26.3835C88.4143 26.8381 89.2997 27.0653 90.3793 27.0653C91.4399 27.0653 92.2921 26.8617 92.9361 26.4545C93.5895 26.0379 93.9209 25.5028 93.9304 24.8494C93.9209 24.3002 93.6889 23.8504 93.2344 23.5C92.7798 23.1402 92.0791 22.8655 91.1321 22.6761L87.3537 21.9233C85.223 21.4972 83.6368 20.7585 82.5952 19.7074C81.563 18.6562 81.0469 17.3163 81.0469 15.6875C81.0469 14.286 81.4257 13.0786 82.1832 12.0653C82.9503 11.0521 84.0251 10.2708 85.4077 9.72159C86.7997 9.17235 88.4285 8.89773 90.294 8.89773C93.0497 8.89773 95.2183 9.48011 96.7997 10.6449C98.3906 11.8097 99.3187 13.3958 99.5838 15.4034Z" fill="#FF9B05"/>
<path d="M113.263 31V1.90909H119.413V14.7358H119.797L130.266 1.90909H137.638L126.842 14.9347L137.766 31H130.408L122.439 19.0398L119.413 22.733V31H113.263ZM142.094 31V9.18182H148.146V31H142.094ZM145.134 6.36932C144.235 6.36932 143.463 6.07102 142.819 5.47443C142.184 4.86837 141.867 4.14394 141.867 3.30114C141.867 2.4678 142.184 1.75284 142.819 1.15625C143.463 0.550188 144.235 0.247158 145.134 0.247158C146.034 0.247158 146.801 0.550188 147.435 1.15625C148.079 1.75284 148.401 2.4678 148.401 3.30114C148.401 4.14394 148.079 4.86837 147.435 5.47443C146.801 6.07102 146.034 6.36932 145.134 6.36932ZM164.598 9.18182V13.7273H151.459V9.18182H164.598ZM154.442 3.95455H160.493V24.2955C160.493 24.8542 160.578 25.2898 160.749 25.6023C160.919 25.9053 161.156 26.1184 161.459 26.2415C161.771 26.3646 162.131 26.4261 162.538 26.4261C162.822 26.4261 163.107 26.4025 163.391 26.3551C163.675 26.2983 163.893 26.2557 164.044 26.2273L164.996 30.7301C164.693 30.8248 164.267 30.9337 163.717 31.0568C163.168 31.1894 162.5 31.2699 161.714 31.2983C160.256 31.3551 158.978 31.161 157.879 30.7159C156.79 30.2708 155.943 29.5795 155.337 28.642C154.731 27.7045 154.432 26.5208 154.442 25.0909V3.95455ZM178.163 31.4261C175.929 31.4261 174.006 30.9527 172.396 30.0057C170.796 29.0492 169.565 27.7235 168.703 26.0284C167.851 24.3333 167.425 22.3826 167.425 20.1761C167.425 17.9413 167.856 15.9811 168.717 14.2955C169.589 12.6004 170.824 11.2794 172.425 10.3324C174.025 9.37595 175.929 8.89773 178.135 8.89773C180.038 8.89773 181.705 9.24337 183.135 9.93466C184.565 10.6259 185.696 11.5966 186.53 12.8466C187.363 14.0966 187.822 15.5644 187.908 17.25H182.197C182.036 16.161 181.61 15.285 180.919 14.6222C180.237 13.9498 179.342 13.6136 178.234 13.6136C177.297 13.6136 176.478 13.8693 175.777 14.3807C175.086 14.8826 174.546 15.6165 174.158 16.5824C173.769 17.5483 173.575 18.7178 173.575 20.0909C173.575 21.483 173.765 22.6667 174.143 23.642C174.532 24.6174 175.076 25.3608 175.777 25.8722C176.478 26.3835 177.297 26.6392 178.234 26.6392C178.926 26.6392 179.546 26.4972 180.095 26.2131C180.654 25.929 181.113 25.517 181.473 24.9773C181.842 24.428 182.084 23.7699 182.197 23.0028H187.908C187.813 24.6695 187.358 26.1373 186.544 27.4062C185.739 28.6657 184.626 29.6506 183.206 30.3608C181.786 31.071 180.105 31.4261 178.163 31.4261ZM197.833 18.3864V31H191.782V1.90909H197.663V13.0312H197.918C198.411 11.7434 199.206 10.7348 200.305 10.0057C201.403 9.26705 202.781 8.89773 204.438 8.89773C205.953 8.89773 207.274 9.22917 208.401 9.89205C209.538 10.5455 210.418 11.4877 211.043 12.7188C211.678 13.9403 211.99 15.4034 211.981 17.108V31H205.93V18.1875C205.939 16.8428 205.598 15.7964 204.907 15.0483C204.225 14.3002 203.269 13.9261 202.038 13.9261C201.214 13.9261 200.485 14.1013 199.85 14.4517C199.225 14.8021 198.733 15.3134 198.373 15.9858C198.022 16.6487 197.843 17.4489 197.833 18.3864ZM226.686 31.4261C224.442 31.4261 222.51 30.9716 220.891 30.0625C219.281 29.1439 218.04 27.8466 217.169 26.1705C216.298 24.4848 215.862 22.4915 215.862 20.1903C215.862 17.946 216.298 15.9763 217.169 14.2812C218.04 12.5862 219.267 11.2652 220.848 10.3182C222.439 9.37121 224.304 8.89773 226.445 8.89773C227.884 8.89773 229.224 9.12973 230.464 9.59375C231.714 10.0483 232.804 10.7348 233.732 11.6534C234.669 12.572 235.398 13.7273 235.919 15.1193C236.44 16.5019 236.7 18.1212 236.7 19.9773V21.6392H218.277V17.8892H231.004C231.004 17.018 230.815 16.2462 230.436 15.5739C230.057 14.9015 229.532 14.3759 228.859 13.9972C228.196 13.6089 227.425 13.4148 226.544 13.4148C225.625 13.4148 224.811 13.6278 224.101 14.054C223.4 14.4706 222.851 15.0341 222.453 15.7443C222.055 16.4451 221.852 17.2263 221.842 18.0881V21.6534C221.842 22.733 222.041 23.6657 222.439 24.4517C222.846 25.2377 223.419 25.8438 224.158 26.2699C224.896 26.696 225.772 26.9091 226.786 26.9091C227.458 26.9091 228.073 26.8144 228.632 26.625C229.191 26.4356 229.669 26.1515 230.067 25.7727C230.464 25.3939 230.768 24.9299 230.976 24.3807L236.572 24.75C236.288 26.0947 235.706 27.2689 234.825 28.2727C233.954 29.267 232.827 30.0436 231.445 30.6023C230.071 31.1515 228.485 31.4261 226.686 31.4261ZM246.7 18.3864V31H240.649V9.18182H246.416V13.0312H246.672C247.155 11.7623 247.964 10.7585 249.101 10.0199C250.237 9.27178 251.615 8.89773 253.234 8.89773C254.75 8.89773 256.071 9.22917 257.197 9.89205C258.324 10.5549 259.2 11.5019 259.825 12.733C260.45 13.9545 260.763 15.4129 260.763 17.108V31H254.712V18.1875C254.721 16.8523 254.38 15.8106 253.689 15.0625C252.998 14.3049 252.046 13.9261 250.834 13.9261C250.019 13.9261 249.3 14.1013 248.675 14.4517C248.059 14.8021 247.576 15.3134 247.226 15.9858C246.885 16.6487 246.71 17.4489 246.7 18.3864Z" fill="black"/>
</g>
<defs>
<filter id="filter0_d_1_2" x="0.402702" y="0.247162" width="264.36" height="46.9347" filterUnits="userSpaceOnUse" color-interpolation-filters="sRGB">
<feFlood flood-opacity="0" result="BackgroundImageFix"/>
<feColorMatrix in="SourceAlpha" type="matrix" values="0 0 0 0 0 0 0 0 0 0 0 0 0 0 0 0 0 0 127 0" result="hardAlpha"/>
<feOffset dy="4"/>
<feGaussianBlur stdDeviation="2"/>
<feComposite in2="hardAlpha" operator="out"/>
<feColorMatrix type="matrix" values="0 0 0 0 0 0 0 0 0 0 0 0 0 0 0 0 0 0 0.25 0"/>
<feBlend mode="normal" in2="BackgroundImageFix" result="effect1_dropShadow_1_2"/>
<feBlend mode="normal" in="SourceGraphic" in2="effect1_dropShadow_1_2" result="shape"/>
</filter>
</defs>
</svg>
